<svg width="50" height="67.93" xmlns="http://www.w3.org/2000/svg"><g><path d="M0 25.01c0-13.807 11.193-25 25-25s25 11.193 25 25-11.193 25-25 25-25-11.193-25-25z" fill="#101010" fill-rule="evenodd"/><g transform="translate(26.87 39.2)" clip-path="url(#a)"><clipPath id="a"><path transform="translate(-26.87 -39.19)" d="M0 25C0 11.193 11.193 0 25 0s25 11.193 25 25-11.193 25-25 25S0 38.807 0 25z" stroke-linecap="round"/></clipPath><g><path d="M-10.450000000000001-16.792c0-5.77 4.678-10.448 10.448-10.448 5.77 0 10.448 4.678 10.448 10.448 0 5.77-4.678 10.448-10.448 10.448-5.77 0-10.448-4.678-10.448-10.448z" stroke="#fff" stroke-width="3" fill="none"/><path d="M-17.91 9.33C-17.91-.56-9.891-8.58 0-8.58c9.892 0 17.91 8.019 17.91 17.91 0 9.892-8.018 17.91-17.91 17.91-9.891 0-17.91-8.018-17.91-17.91z" stroke="#fff" stroke-width="3" fill="none"/></g></g></g></svg>